# xmcd
#
# Track frame offsets:
# 150
# 22239
# 40805
# 52644
# 63859
# 84118
# 91787
# 107241
# 125883
# 144174
# 170970
# 187346
# 206587
#
# Disc length: 3159 seconds
#
#
# Revision: 0
# Processed by: cddbd v1.5.2PL0 Copyright (c) Steve Scherf et al.
# Submitted via: Nero 7, 11, 10, 0 
#
DISCID=b30c550d
DTITLE=Myhrens Dam - Sampled Minds
DYEAR=2004
DGENRE=Blues
TTITLE0=Moonshine Whiskey
TTITLE1=Shinin' Star
TTITLE2=Bloodshot Eyes
TTITLE3=Suicide Bomber
TTITLE4=Affecting My Life
TTITLE5=Sampled Minds
TTITLE6=Southern Women
TTITLE7=Victims Of Circumstances
TTITLE8=Up The Line
TTITLE9=Taste Of My Own Medicine
TTITLE10=Wang Dang Doodle
TTITLE11=300 Pounds Of Joy
TTITLE12=Schooldays
EXTD=
EXTT0=Moonshine Whiskey
EXTT1=Shinin' Star
EXTT2=Bloodshot Eyes
EXTT3=Suicide Bomber
EXTT4=Affecting My Life
EXTT5=Sampled Minds
EXTT6=Southern Women
EXTT7=Victims Of Circumstances
EXTT8=Up The Line
EXTT9=Taste Of My Own Medicine
EXTT10=Wang Dang Doodle
EXTT11=300 Pounds Of Joy
EXTT12=Schooldays
PLAYORDER=
